<svg width="18" height="22" viewBox="0 0 18 22" fill="none" xmlns="http://www.w3.org/2000/svg">
<g filter="url(#filter0_d_1_392)">
<path d="M12.8883 7.54628L6.6581 13.7763C6.51401 13.9206 6.32165 14 6.11655 14C5.91144 14 5.71909 13.9206 5.57499 13.7763L5.11618 13.3176C4.81763 13.0188 4.81763 12.533 5.11618 12.2345L10.3478 7.0029L5.11038 1.76547C4.96628 1.62126 4.88672 1.42901 4.88672 1.22402C4.88672 1.0188 4.96628 0.826562 5.11038 0.682239L5.56918 0.223657C5.7134 0.0794468 5.90564 0 6.11074 0C6.31585 0 6.5082 0.0794468 6.6523 0.223657L12.8883 6.45941C13.0327 6.60408 13.1121 6.79723 13.1116 7.00256C13.1121 7.20869 13.0327 7.40173 12.8883 7.54628Z" fill="#D64374"/>
</g>
<defs>
<filter id="filter0_d_1_392" x="-2" y="0" width="22" height="22" filterUnits="userSpaceOnUse" color-interpolation-filters="sRGB">
<feFlood flood-opacity="0" result="BackgroundImageFix"/>
<feColorMatrix in="SourceAlpha" type="matrix" values="0 0 0 0 0 0 0 0 0 0 0 0 0 0 0 0 0 0 127 0" result="hardAlpha"/>
<feOffset dy="4"/>
<feGaussianBlur stdDeviation="2"/>
<feComposite in2="hardAlpha" operator="out"/>
<feColorMatrix type="matrix" values="0 0 0 0 0 0 0 0 0 0 0 0 0 0 0 0 0 0 0.25 0"/>
<feBlend mode="normal" in2="BackgroundImageFix" result="effect1_dropShadow_1_392"/>
<feBlend mode="normal" in="SourceGraphic" in2="effect1_dropShadow_1_392" result="shape"/>
</filter>
</defs>
</svg>
